<?xml version="1.0" encoding="iso-8859-1"?>
<!-- Generator: Adobe Illustrator 19.0.0, SVG Export Plug-In . SVG Version: 6.00 Build 0)  -->
<svg version="1.1" id="Layer_1" xmlns="http://www.w3.org/2000/svg" xmlns:xlink="http://www.w3.org/1999/xlink" x="0px" y="0px"
	 viewBox="0 0 512 512" style="enable-background:new 0 0 512 512;" xml:space="preserve">
<path style="fill:#FFAF3C;" d="M492.013,247.109l-33.012-85.829c-3.811-9.908-13.329-16.444-23.943-16.444h-76.444v205.228h136.818
	v-84.536C495.432,259.229,494.273,252.986,492.013,247.109z"/>
<polygon style="fill:#FA9B32;" points="358.614,144.835 358.614,342.415 358.614,350.063 392.818,350.063 392.818,144.835 "/>
<path style="fill:#7F8499;" d="M495.432,375.716H59.324v-34.205h436.109c4.722,0,8.551,3.829,8.551,8.551v17.102
	C503.983,371.887,500.155,375.716,495.432,375.716z"/>
<g>
	<circle style="fill:#5B5D6E;" cx="401.37" cy="384.267" r="42.756"/>
	<circle style="fill:#5B5D6E;" cx="204.693" cy="384.267" r="42.756"/>
	<circle style="fill:#5B5D6E;" cx="119.182" cy="384.267" r="42.756"/>
</g>
<path style="fill:#FFC850;" d="M367.165,119.182c0-18.891-15.314-34.205-34.205-34.205H42.221
	c-18.891,0-34.205,15.314-34.205,34.205v256.534c0,4.722,3.829,8.551,8.551,8.551h34.205c4.722,0,8.551-3.829,8.551-8.551v-25.653
	c0-4.722,3.829-8.551,8.551-8.551h299.29V119.182z"/>
<path style="fill:#5B5D6E;" d="M492.013,247.109l-26.18-68.069h-55.912c-4.722,0-8.551,3.829-8.551,8.551v21.875
	c0,7.793,3.542,15.164,9.628,20.032l26.101,20.881c4.548,3.639,10.2,5.621,16.026,5.621h41.4
	C493.953,252.974,493.122,249.995,492.013,247.109z"/>
<path d="M503.449,335.574v-70.048c0-7.309-1.331-14.474-3.954-21.296l-33.012-85.829c-4.966-12.91-17.594-21.583-31.425-21.583
	h-59.876v-17.637c0-23.281-18.941-42.221-42.221-42.221H42.221C18.941,76.96,0,95.901,0,119.182v256.534
	c0,9.136,7.432,16.568,16.568,16.568h34.205c6.228,0,11.659-3.458,14.489-8.551h3.162c-0.002,0.178-0.014,0.355-0.014,0.534
	c0,27.996,22.777,50.772,50.772,50.772c17.938,0,33.721-9.359,42.756-23.443c9.034,14.084,24.818,23.443,42.756,23.443
	c27.995,0,50.772-22.776,50.772-50.772c0-0.18-0.012-0.356-0.014-0.534h95.158c-0.002,0.178-0.014,0.355-0.014,0.534
	c0,27.996,22.777,50.772,50.772,50.772c27.995,0,50.772-22.776,50.772-50.772c0-0.18-0.012-0.356-0.014-0.534h43.305
	c9.136,0,16.568-7.432,16.568-16.568v-17.102C512,343.834,508.542,338.403,503.449,335.574z M71.2,367.699h-3.86v-17.637
	c0-0.295,0.239-0.534,0.534-0.534h14.33C77.35,354.692,73.567,360.865,71.2,367.699z M119.182,419.006
	c-19.155,0-34.739-15.583-34.739-34.739c0-19.156,15.584-34.739,34.739-34.739s34.739,15.583,34.739,34.739
	C153.921,403.423,138.336,419.006,119.182,419.006z M161.937,356.938c-1.698-2.648-3.633-5.128-5.778-7.41h11.557
	C165.571,351.81,163.636,354.29,161.937,356.938z M204.693,419.006c-19.155,0-34.739-15.583-34.739-34.739
	c0-19.156,15.584-34.739,34.739-34.739s34.739,15.583,34.739,34.739C239.432,403.423,223.848,419.006,204.693,419.006z
	 M67.875,333.495c-9.136,0-16.568,7.432-16.568,16.568v25.653c0,0.295-0.239,0.534-0.534,0.534H16.568
	c-0.295,0-0.534-0.239-0.534-0.534V119.182c0-14.44,11.748-26.188,26.188-26.188H332.96c14.44,0,26.188,11.748,26.188,26.188
	v214.313h-0.534H67.875z M353.388,367.699H252.676c-2.367-6.835-6.151-13.007-11.005-18.171h116.943h5.778
	C359.538,354.692,355.755,360.865,353.388,367.699z M460.327,187.056l23.433,60.927h-30.636c-3.989,0-7.902-1.372-11.018-3.864
	l-26.101-20.881c-4.207-3.365-6.619-8.384-6.619-13.772v-21.876c0-0.295,0.239-0.534,0.534-0.534H460.327z M401.37,419.006
	c-19.155,0-34.739-15.583-34.739-34.739c0-19.156,15.584-34.739,34.739-34.739c19.155,0,34.739,15.583,34.739,34.739
	C436.109,403.423,420.524,419.006,401.37,419.006z M375.182,333.495V152.852h59.876c7.245,0,13.86,4.543,16.461,11.306l2.64,6.866
	h-44.238c-9.136,0-16.568,7.432-16.568,16.568v21.875c0,10.285,4.606,19.868,12.636,26.292l26.101,20.881
	c5.947,4.758,13.417,7.379,21.034,7.379h34.291v35.273h-9.086c-4.427,0-8.017,3.589-8.017,8.017c0,4.427,3.589,8.017,8.017,8.017
	h9.086v18.171H375.182z M495.967,367.165c0,0.295-0.239,0.534-0.534,0.534h-46.081c-2.367-6.835-6.151-13.007-11.005-18.171h57.086
	c0.295,0,0.534,0.239,0.534,0.534V367.165z"/>
<path d="M119.182,367.699c-9.136,0-16.568,7.432-16.568,16.568c0,9.136,7.432,16.568,16.568,16.568s16.568-7.432,16.568-16.568
	C135.749,375.131,128.317,367.699,119.182,367.699z"/>
<path d="M204.693,367.699c-9.136,0-16.568,7.432-16.568,16.568c0,9.136,7.432,16.568,16.568,16.568s16.568-7.432,16.568-16.568
	C221.261,375.131,213.829,367.699,204.693,367.699z"/>
<path d="M401.37,367.699c-9.136,0-16.568,7.432-16.568,16.568c0,9.136,7.432,16.568,16.568,16.568s16.568-7.432,16.568-16.568
	C417.937,375.131,410.505,367.699,401.37,367.699z"/>
<path d="M262.522,195.47c1.367,5.787,2.06,11.767,2.06,17.775c0,26.315-13.108,49.884-33.844,63.838l0.967-1.357
	c2.571-3.604,1.733-8.611-1.872-11.182c-3.604-2.571-8.611-1.733-11.182,1.872l-17.91,25.113c-1.604,2.25-1.938,5.169-0.88,7.723
	c1.057,2.554,3.356,4.382,6.082,4.839l30.421,5.095c0.448,0.075,0.894,0.111,1.334,0.111c3.846,0,7.241-2.775,7.897-6.693
	c0.731-4.366-2.216-8.5-6.582-9.231l-3.31-0.555c9.304-5.631,17.647-12.871,24.513-21.438c13.154-16.414,20.398-37.06,20.398-58.134
	c0-7.247-0.838-14.467-2.489-21.461c-1.019-4.309-5.335-6.977-9.645-5.959C264.173,186.843,261.505,191.16,262.522,195.47z"/>
<path d="M115.641,167.249c1.467,1.146,3.206,1.701,4.932,1.701c2.383,0,4.741-1.057,6.321-3.079
	c14.714-18.822,36.836-29.618,60.696-29.618c16.52,0,32.204,5.179,45.176,14.61l-1.305-0.375c-4.257-1.225-8.698,1.232-9.921,5.488
	c-1.225,4.255,1.232,8.697,5.488,9.92l29.641,8.53c0.731,0.211,1.476,0.313,2.217,0.313c1.953,0,3.868-0.714,5.358-2.053
	c2.055-1.848,3.015-4.624,2.539-7.347l-5.322-30.382c-0.764-4.361-4.917-7.279-9.28-6.514c-4.361,0.764-7.277,4.919-6.514,9.28
	l0.575,3.28c-16.404-13.376-36.931-20.782-58.652-20.782c-28.828,0-55.555,13.04-73.328,35.777
	C111.536,159.484,112.154,164.522,115.641,167.249z"/>
<path d="M81.525,221.391c3.498,2.714,8.534,2.077,11.247-1.422l1.899-2.45c0.91,19.576,8.03,38.556,20.291,53.857
	c12.951,16.161,31.122,27.668,51.168,32.402c0.62,0.146,1.24,0.217,1.849,0.217c3.632,0,6.924-2.486,7.795-6.176
	c1.018-4.309-1.65-8.627-5.959-9.645c-32.613-7.705-56.022-35.162-58.911-68.045l0.869,1.766c1.395,2.834,4.239,4.478,7.198,4.478
	c1.189,0,2.396-0.266,3.535-0.826c3.972-1.956,5.606-6.761,3.651-10.734l-13.624-27.673c-1.221-2.48-3.633-4.156-6.383-4.435
	c-2.752-0.281-5.45,0.879-7.143,3.062l-18.903,24.374C77.389,213.642,78.026,218.677,81.525,221.391z"/>
<g>
</g>
<g>
</g>
<g>
</g>
<g>
</g>
<g>
</g>
<g>
</g>
<g>
</g>
<g>
</g>
<g>
</g>
<g>
</g>
<g>
</g>
<g>
</g>
<g>
</g>
<g>
</g>
<g>
</g>
</svg>
