<?xml version="1.0" encoding="utf-8"?>
<!-- Generator: Adobe Illustrator 21.1.0, SVG Export Plug-In . SVG Version: 6.00 Build 0)  -->
<!DOCTYPE svg PUBLIC "-//W3C//DTD SVG 1.1//EN" "http://www.w3.org/Graphics/SVG/1.1/DTD/svg11.dtd">
<svg version="1.1" id="Слой_1" xmlns="http://www.w3.org/2000/svg" xmlns:xlink="http://www.w3.org/1999/xlink" x="0px" y="0px"
	 viewBox="0 0 640 512" style="enable-background:new 0 0 640 512;" xml:space="preserve">
<style type="text/css">
	.st0{fill:#304095;}
</style>
<path class="st0" d="M224,192c-35.3,0-64,28.7-64,64s28.7,64,64,64s64-28.7,64-64S259.3,192,224,192z M624,416H380.6
	c41.5-40.7,67.4-97.3,67.4-160c0-123.7-100.3-224-224-224S0,132.3,0,256s100.3,224,224,224h400c8.8,0,16-7.2,16-16v-32
	C640,423.2,632.8,416,624,416z M224,352c-53,0-96-43-96-96s43-96,96-96s96,43,96,96S277,352,224,352z"/>
</svg>
